<svg width="41" height="41" viewBox="0 0 41 41" fill="none" xmlns="http://www.w3.org/2000/svg">
<path d="M17.5 4.5V13.8349C17.5 14.2487 17.2869 14.6332 16.936 14.8525L2.064 24.1475C1.71314 24.3668 1.5 24.7513 1.5 25.1651V26.9631C1.5 27.7438 2.23367 28.3166 2.99104 28.1272L16.009 24.8728C16.7663 24.6834 17.5 25.2562 17.5 26.0369V31.9555C17.5 32.3015 17.3506 32.6307 17.0902 32.8586L12.7696 36.6391C11.853 37.4411 12.5762 38.9407 13.7745 38.7228L20.2853 37.539C20.4273 37.5132 20.5727 37.5132 20.7147 37.539L27.2255 38.7228C28.4238 38.9407 29.147 37.4411 28.2304 36.6391L23.9098 32.8586C23.6494 32.6307 23.5 32.3015 23.5 31.9555V26.0369C23.5 25.2562 24.2337 24.6834 24.991 24.8728L38.009 28.1272C38.7663 28.3166 39.5 27.7438 39.5 26.9631V25.1651C39.5 24.7513 39.2869 24.3668 38.936 24.1475L24.064 14.8525C23.7131 14.6332 23.5 14.2487 23.5 13.8349V4.5C23.5 2.84315 22.1569 1.5 20.5 1.5C18.8431 1.5 17.5 2.84315 17.5 4.5Z" stroke="#222222" stroke-width="1.5" stroke-linecap="round" stroke-linejoin="round"/>
</svg>
