<svg width="48" height="31" viewBox="0 0 48 31" fill="none" xmlns="http://www.w3.org/2000/svg">
<path d="M21.9552 20.9749C24.0007 19.6132 25.5537 17.6292 26.3845 15.3166C27.2153 13.0039 27.2798 10.4853 26.5684 8.13312C25.8571 5.78097 24.4076 3.72018 22.4345 2.2555C20.4613 0.790813 18.0692 0 15.6118 0C13.1545 0 10.7623 0.790813 8.78918 2.2555C6.81603 3.72018 5.3666 5.78097 4.65525 8.13312C3.9439 10.4853 4.00839 13.0039 4.83918 15.3166C5.66996 17.6292 7.22295 19.6132 9.26847 20.9749C5.56832 22.3387 2.4083 24.8623 0.25994 28.1692C0.14703 28.337 0.0686019 28.5256 0.0292157 28.724C-0.0101705 28.9224 -0.00972955 29.1266 0.030513 29.3248C0.0707555 29.523 0.149997 29.7113 0.263631 29.8786C0.377265 30.0459 0.523025 30.189 0.692438 30.2995C0.861852 30.41 1.05154 30.4857 1.25047 30.5223C1.44941 30.5588 1.65362 30.5555 1.85125 30.5124C2.04887 30.4693 2.23596 30.3874 2.40165 30.2714C2.56733 30.1553 2.7083 30.0076 2.81636 29.8366C4.20215 27.7052 6.09842 25.9537 8.33297 24.7412C10.5675 23.5288 13.0695 22.8937 15.6118 22.8937C18.1541 22.8937 20.6562 23.5288 22.8907 24.7412C25.1252 25.9537 27.0215 27.7052 28.4073 29.8366C28.6312 30.1693 28.9769 30.4005 29.3699 30.4803C29.7629 30.5601 30.1715 30.482 30.5074 30.2629C30.8432 30.0439 31.0794 29.7014 31.1648 29.3096C31.2502 28.9178 31.178 28.5081 30.9637 28.1692C28.8154 24.8623 25.6553 22.3387 21.9552 20.9749ZM7.21761 11.4513C7.21761 9.79109 7.70992 8.16816 8.63229 6.78773C9.55466 5.40731 10.8657 4.3314 12.3995 3.69606C13.9333 3.06072 15.6211 2.89449 17.2495 3.21838C18.8778 3.54228 20.3735 4.34175 21.5474 5.5157C22.7214 6.68965 23.5209 8.18536 23.8448 9.81368C24.1687 11.442 24.0024 13.1298 23.3671 14.6636C22.7317 16.1975 21.6558 17.5085 20.2754 18.4309C18.895 19.3532 17.2721 19.8455 15.6118 19.8455C13.3863 19.843 11.2527 18.9578 9.67901 17.3841C8.10533 15.8105 7.22013 13.6768 7.21761 11.4513ZM47.3077 30.2811C46.9686 30.5022 46.5557 30.5795 46.1597 30.4962C45.7636 30.4128 45.4169 30.1755 45.1958 29.8366C43.8116 27.7039 41.9156 25.9517 39.6806 24.7397C37.4456 23.5277 34.9427 22.8946 32.4003 22.898C31.9955 22.898 31.6073 22.7372 31.3211 22.451C31.0349 22.1647 30.8741 21.7765 30.8741 21.3718C30.8741 20.967 31.0349 20.5788 31.3211 20.2926C31.6073 20.0063 31.9955 19.8455 32.4003 19.8455C33.6365 19.8444 34.8571 19.5702 35.9751 19.0426C37.093 18.515 38.0806 17.747 38.8673 16.7934C39.654 15.8399 40.2204 14.7244 40.526 13.5266C40.8316 12.3287 40.8689 11.0782 40.6352 9.86433C40.4015 8.65044 39.9026 7.50315 39.1741 6.50444C38.4456 5.50573 37.5055 4.68024 36.4209 4.08697C35.3364 3.4937 34.1343 3.14729 32.9003 3.07248C31.6664 2.99767 30.4312 3.19632 29.283 3.65422C29.0958 3.73516 28.8942 3.77774 28.6903 3.77947C28.4863 3.78119 28.2841 3.74202 28.0955 3.66426C27.907 3.5865 27.7359 3.47174 27.5924 3.32675C27.449 3.18177 27.3361 3.0095 27.2603 2.82012C27.1846 2.63075 27.1475 2.42811 27.1514 2.22419C27.1553 2.02026 27.2 1.81919 27.2829 1.63284C27.3659 1.44649 27.4853 1.27866 27.6342 1.13925C27.7831 0.999837 27.9584 0.891682 28.1498 0.821173C30.7776 -0.226863 33.7006 -0.264577 36.3546 0.715305C39.0087 1.69519 41.2058 3.62323 42.5222 6.1275C43.8386 8.63176 44.1809 11.5348 43.4831 14.2766C42.7854 17.0183 41.097 19.4046 38.7436 20.9749C42.4438 22.3387 45.6038 24.8623 47.7522 28.1692C47.9732 28.5082 48.0506 28.9211 47.9672 29.3172C47.8839 29.7132 47.6466 30.0599 47.3077 30.2811Z" fill="#767676"/>
</svg>
