<svg width="27" height="27" viewBox="0 0 27 27" fill="none" xmlns="http://www.w3.org/2000/svg">
<path d="M3.49948 1.5H23.4997C24.6042 1.5 25.4996 2.39527 25.4997 3.49974L25.4999 4.67139C25.5 5.20193 25.2892 5.71076 24.9141 6.0859L16.752 14.2475C16.3769 14.6226 16.1661 15.1313 16.1661 15.6618V22.9384C16.1661 24.2396 14.9434 25.1943 13.6811 24.8787L12.3477 24.5454C11.4574 24.3228 10.8328 23.5229 10.8328 22.6051L10.8328 15.6618C10.8328 15.1313 10.6221 14.6226 10.247 14.2475L2.08526 6.08579C1.71019 5.71071 1.49948 5.20201 1.49948 4.67157V3.5C1.49948 2.39543 2.39491 1.5 3.49948 1.5Z" stroke="#636B63" stroke-width="1.5" stroke-linecap="round" stroke-linejoin="round"/>
</svg>
