<svg width="26" height="29" viewBox="0 0 26 29" fill="none" xmlns="http://www.w3.org/2000/svg">
<path fill-rule="evenodd" clip-rule="evenodd" d="M13.8742 28.2098C13.3305 28.5118 12.6695 28.5118 12.1258 28.2098L0.925844 21.9876C0.354406 21.6701 1.90735e-06 21.0678 1.90735e-06 20.4141L-2.47955e-05 8.02222C-2.47955e-05 7.36852 0.354382 6.7662 0.925821 6.44874L12.1258 0.226517C12.6695 -0.0755043 13.3305 -0.0755062 13.8742 0.226519L25.0741 6.44874C25.6456 6.7662 26 7.36852 26 8.02222L26 20.4141C26 21.0678 25.6456 21.6701 25.0742 21.9876L13.8742 28.2098ZM13 26.4075L24 20.2964L24 8.1399L13 2.02879L1.99998 8.1399L2 20.2964L13 26.4075Z" fill="#038D41"/>
</svg>
