<svg width="39" height="42" viewBox="0 0 39 42" fill="none" xmlns="http://www.w3.org/2000/svg">
<path d="M36.9487 17.7356L34.5 16.9181V7.5C34.5 6.70435 34.1839 5.94129 33.6213 5.37868C33.0587 4.81607 32.2957 4.5 31.5 4.5H21V1.5C21 1.10218 20.842 0.720644 20.5607 0.43934C20.2794 0.158035 19.8978 0 19.5 0C19.1022 0 18.7206 0.158035 18.4393 0.43934C18.158 0.720644 18 1.10218 18 1.5V4.5H7.5C6.70435 4.5 5.94129 4.81607 5.37868 5.37868C4.81607 5.94129 4.5 6.70435 4.5 7.5V16.9181L2.05125 17.7356C1.45389 17.9348 0.934339 18.3168 0.566188 18.8276C0.198036 19.3385 -4.66585e-05 19.9522 8.24385e-09 20.5819V25.5C8.24385e-09 37.0387 18.3544 41.76 19.1362 41.955C19.3751 42.0147 19.6249 42.0147 19.8638 41.955C20.6456 41.76 39 37.0387 39 25.5V20.5819C39 19.9522 38.802 19.3385 38.4338 18.8276C38.0657 18.3168 37.5461 17.9348 36.9487 17.7356ZM7.5 7.5H31.5V15.9188L19.9744 12.0769C19.6665 11.9742 19.3335 11.9742 19.0256 12.0769L7.5 15.9188V7.5ZM36 25.5C36 30.1706 31.56 33.5625 27.8344 35.5931C25.1817 37.0007 22.3882 38.125 19.5 38.9475C16.6292 38.1337 13.8521 37.0201 11.2144 35.625C4.425 31.9406 3 28.0856 3 25.5V20.5819L18 15.5812V28.5C18 28.8978 18.158 29.2794 18.4393 29.5607C18.7206 29.842 19.1022 30 19.5 30C19.8978 30 20.2794 29.842 20.5607 29.5607C20.842 29.2794 21 28.8978 21 28.5V15.5812L36 20.5819V25.5Z" fill="#222222"/>
<path d="M36.9487 17.7356L34.5 16.9181V7.5C34.5 6.70435 34.1839 5.94129 33.6213 5.37868C33.0587 4.81607 32.2957 4.5 31.5 4.5H21V1.5C21 1.10218 20.842 0.720644 20.5607 0.43934C20.2794 0.158035 19.8978 0 19.5 0C19.1022 0 18.7206 0.158035 18.4393 0.43934C18.158 0.720644 18 1.10218 18 1.5V4.5H7.5C6.70435 4.5 5.94129 4.81607 5.37868 5.37868C4.81607 5.94129 4.5 6.70435 4.5 7.5V16.9181L2.05125 17.7356C1.45389 17.9348 0.934339 18.3168 0.566188 18.8276C0.198036 19.3385 -4.66585e-05 19.9522 8.24385e-09 20.5819V25.5C8.24385e-09 37.0387 18.3544 41.76 19.1362 41.955C19.3751 42.0147 19.6249 42.0147 19.8638 41.955C20.6456 41.76 39 37.0387 39 25.5V20.5819C39 19.9522 38.802 19.3385 38.4338 18.8276C38.0657 18.3168 37.5461 17.9348 36.9487 17.7356ZM7.5 7.5H31.5V15.9188L19.9744 12.0769C19.6665 11.9742 19.3335 11.9742 19.0256 12.0769L7.5 15.9188V7.5ZM36 25.5C36 30.1706 31.56 33.5625 27.8344 35.5931C25.1817 37.0007 22.3882 38.125 19.5 38.9475C16.6292 38.1337 13.8521 37.0201 11.2144 35.625C4.425 31.9406 3 28.0856 3 25.5V20.5819L18 15.5812V28.5C18 28.8978 18.158 29.2794 18.4393 29.5607C18.7206 29.842 19.1022 30 19.5 30C19.8978 30 20.2794 29.842 20.5607 29.5607C20.842 29.2794 21 28.8978 21 28.5V15.5812L36 20.5819V25.5Z" fill="black" fill-opacity="0.2"/>
<path d="M36.9487 17.7356L34.5 16.9181V7.5C34.5 6.70435 34.1839 5.94129 33.6213 5.37868C33.0587 4.81607 32.2957 4.5 31.5 4.5H21V1.5C21 1.10218 20.842 0.720644 20.5607 0.43934C20.2794 0.158035 19.8978 0 19.5 0C19.1022 0 18.7206 0.158035 18.4393 0.43934C18.158 0.720644 18 1.10218 18 1.5V4.5H7.5C6.70435 4.5 5.94129 4.81607 5.37868 5.37868C4.81607 5.94129 4.5 6.70435 4.5 7.5V16.9181L2.05125 17.7356C1.45389 17.9348 0.934339 18.3168 0.566188 18.8276C0.198036 19.3385 -4.66585e-05 19.9522 8.24385e-09 20.5819V25.5C8.24385e-09 37.0387 18.3544 41.76 19.1362 41.955C19.3751 42.0147 19.6249 42.0147 19.8638 41.955C20.6456 41.76 39 37.0387 39 25.5V20.5819C39 19.9522 38.802 19.3385 38.4338 18.8276C38.0657 18.3168 37.5461 17.9348 36.9487 17.7356ZM7.5 7.5H31.5V15.9188L19.9744 12.0769C19.6665 11.9742 19.3335 11.9742 19.0256 12.0769L7.5 15.9188V7.5ZM36 25.5C36 30.1706 31.56 33.5625 27.8344 35.5931C25.1817 37.0007 22.3882 38.125 19.5 38.9475C16.6292 38.1337 13.8521 37.0201 11.2144 35.625C4.425 31.9406 3 28.0856 3 25.5V20.5819L18 15.5812V28.5C18 28.8978 18.158 29.2794 18.4393 29.5607C18.7206 29.842 19.1022 30 19.5 30C19.8978 30 20.2794 29.842 20.5607 29.5607C20.842 29.2794 21 28.8978 21 28.5V15.5812L36 20.5819V25.5Z" fill="black" fill-opacity="0.2"/>
<path d="M36.9487 17.7356L34.5 16.9181V7.5C34.5 6.70435 34.1839 5.94129 33.6213 5.37868C33.0587 4.81607 32.2957 4.5 31.5 4.5H21V1.5C21 1.10218 20.842 0.720644 20.5607 0.43934C20.2794 0.158035 19.8978 0 19.5 0C19.1022 0 18.7206 0.158035 18.4393 0.43934C18.158 0.720644 18 1.10218 18 1.5V4.5H7.5C6.70435 4.5 5.94129 4.81607 5.37868 5.37868C4.81607 5.94129 4.5 6.70435 4.5 7.5V16.9181L2.05125 17.7356C1.45389 17.9348 0.934339 18.3168 0.566188 18.8276C0.198036 19.3385 -4.66585e-05 19.9522 8.24385e-09 20.5819V25.5C8.24385e-09 37.0387 18.3544 41.76 19.1362 41.955C19.3751 42.0147 19.6249 42.0147 19.8638 41.955C20.6456 41.76 39 37.0387 39 25.5V20.5819C39 19.9522 38.802 19.3385 38.4338 18.8276C38.0657 18.3168 37.5461 17.9348 36.9487 17.7356ZM7.5 7.5H31.5V15.9188L19.9744 12.0769C19.6665 11.9742 19.3335 11.9742 19.0256 12.0769L7.5 15.9188V7.5ZM36 25.5C36 30.1706 31.56 33.5625 27.8344 35.5931C25.1817 37.0007 22.3882 38.125 19.5 38.9475C16.6292 38.1337 13.8521 37.0201 11.2144 35.625C4.425 31.9406 3 28.0856 3 25.5V20.5819L18 15.5812V28.5C18 28.8978 18.158 29.2794 18.4393 29.5607C18.7206 29.842 19.1022 30 19.5 30C19.8978 30 20.2794 29.842 20.5607 29.5607C20.842 29.2794 21 28.8978 21 28.5V15.5812L36 20.5819V25.5Z" fill="black" fill-opacity="0.2"/>
</svg>
