<svg width="39" height="33" viewBox="0 0 39 33" fill="none" xmlns="http://www.w3.org/2000/svg">
<path d="M36 0H3C2.20435 0 1.44129 0.31607 0.87868 0.87868C0.31607 1.44129 0 2.20435 0 3V30C0 30.7956 0.31607 31.5587 0.87868 32.1213C1.44129 32.6839 2.20435 33 3 33H36C36.7957 33 37.5587 32.6839 38.1213 32.1213C38.6839 31.5587 39 30.7956 39 30V3C39 2.20435 38.6839 1.44129 38.1213 0.87868C37.5587 0.31607 36.7957 0 36 0ZM36 3V10.5H3V3H36ZM3 13.5H13.5V30H3V13.5ZM36 30H16.5V13.5H36V30Z" fill="#767676"/>
</svg>
