<svg width="33" height="42" viewBox="0 0 33 42" fill="none" xmlns="http://www.w3.org/2000/svg">
<path d="M27 0H6C4.4087 0 2.88258 0.632141 1.75736 1.75736C0.632141 2.88258 0 4.4087 0 6V30C0 31.5913 0.632141 33.1174 1.75736 34.2426C2.88258 35.3678 4.4087 36 6 36H7.5L4.8 39.6C4.68181 39.7576 4.59582 39.9369 4.54693 40.1277C4.49804 40.3185 4.48722 40.5171 4.51507 40.7121C4.54293 40.9071 4.60893 41.0947 4.70929 41.2642C4.80965 41.4337 4.94241 41.5818 5.1 41.7C5.25758 41.8182 5.43691 41.9042 5.62773 41.9531C5.81855 42.0019 6.01713 42.0128 6.21213 41.9849C6.40713 41.9571 6.59474 41.8911 6.76424 41.7907C6.93374 41.6903 7.08181 41.5576 7.2 41.4L11.25 36H21.75L25.8 41.4C26.0387 41.7183 26.394 41.9287 26.7879 41.9849C27.1817 42.0412 27.5817 41.9387 27.9 41.7C28.2183 41.4613 28.4287 41.106 28.4849 40.7121C28.5412 40.3183 28.4387 39.9183 28.2 39.6L25.5 36H27C28.5913 36 30.1174 35.3678 31.2426 34.2426C32.3679 33.1174 33 31.5913 33 30V6C33 4.4087 32.3679 2.88258 31.2426 1.75736C30.1174 0.632141 28.5913 0 27 0ZM3 18V10.5H15V18H3ZM18 10.5H30V18H18V10.5ZM6 3H27C27.7956 3 28.5587 3.31607 29.1213 3.87868C29.6839 4.44129 30 5.20435 30 6V7.5H3V6C3 5.20435 3.31607 4.44129 3.87868 3.87868C4.44129 3.31607 5.20435 3 6 3ZM27 33H6C5.20435 33 4.44129 32.6839 3.87868 32.1213C3.31607 31.5587 3 30.7956 3 30V21H30V30C30 30.7956 29.6839 31.5587 29.1213 32.1213C28.5587 32.6839 27.7956 33 27 33ZM10.5 27.75C10.5 28.195 10.368 28.63 10.1208 29C9.87357 29.37 9.52217 29.6584 9.11104 29.8287C8.6999 29.999 8.2475 30.0436 7.81104 29.9568C7.37459 29.8699 6.97368 29.6557 6.65901 29.341C6.34434 29.0263 6.13005 28.6254 6.04323 28.1889C5.95641 27.7525 6.00097 27.3001 6.17127 26.889C6.34157 26.4778 6.62996 26.1264 6.99997 25.8792C7.36998 25.632 7.80499 25.5 8.25 25.5C8.84673 25.5 9.41903 25.737 9.84099 26.159C10.2629 26.581 10.5 27.1533 10.5 27.75ZM27 27.75C27 28.195 26.868 28.63 26.6208 29C26.3736 29.37 26.0222 29.6584 25.611 29.8287C25.1999 29.999 24.7475 30.0436 24.311 29.9568C23.8746 29.8699 23.4737 29.6557 23.159 29.341C22.8443 29.0263 22.63 28.6254 22.5432 28.1889C22.4564 27.7525 22.501 27.3001 22.6713 26.889C22.8416 26.4778 23.13 26.1264 23.5 25.8792C23.87 25.632 24.305 25.5 24.75 25.5C25.3467 25.5 25.919 25.737 26.341 26.159C26.7629 26.581 27 27.1533 27 27.75Z" fill="#222222"/>
<path d="M27 0H6C4.4087 0 2.88258 0.632141 1.75736 1.75736C0.632141 2.88258 0 4.4087 0 6V30C0 31.5913 0.632141 33.1174 1.75736 34.2426C2.88258 35.3678 4.4087 36 6 36H7.5L4.8 39.6C4.68181 39.7576 4.59582 39.9369 4.54693 40.1277C4.49804 40.3185 4.48722 40.5171 4.51507 40.7121C4.54293 40.9071 4.60893 41.0947 4.70929 41.2642C4.80965 41.4337 4.94241 41.5818 5.1 41.7C5.25758 41.8182 5.43691 41.9042 5.62773 41.9531C5.81855 42.0019 6.01713 42.0128 6.21213 41.9849C6.40713 41.9571 6.59474 41.8911 6.76424 41.7907C6.93374 41.6903 7.08181 41.5576 7.2 41.4L11.25 36H21.75L25.8 41.4C26.0387 41.7183 26.394 41.9287 26.7879 41.9849C27.1817 42.0412 27.5817 41.9387 27.9 41.7C28.2183 41.4613 28.4287 41.106 28.4849 40.7121C28.5412 40.3183 28.4387 39.9183 28.2 39.6L25.5 36H27C28.5913 36 30.1174 35.3678 31.2426 34.2426C32.3679 33.1174 33 31.5913 33 30V6C33 4.4087 32.3679 2.88258 31.2426 1.75736C30.1174 0.632141 28.5913 0 27 0ZM3 18V10.5H15V18H3ZM18 10.5H30V18H18V10.5ZM6 3H27C27.7956 3 28.5587 3.31607 29.1213 3.87868C29.6839 4.44129 30 5.20435 30 6V7.5H3V6C3 5.20435 3.31607 4.44129 3.87868 3.87868C4.44129 3.31607 5.20435 3 6 3ZM27 33H6C5.20435 33 4.44129 32.6839 3.87868 32.1213C3.31607 31.5587 3 30.7956 3 30V21H30V30C30 30.7956 29.6839 31.5587 29.1213 32.1213C28.5587 32.6839 27.7956 33 27 33ZM10.5 27.75C10.5 28.195 10.368 28.63 10.1208 29C9.87357 29.37 9.52217 29.6584 9.11104 29.8287C8.6999 29.999 8.2475 30.0436 7.81104 29.9568C7.37459 29.8699 6.97368 29.6557 6.65901 29.341C6.34434 29.0263 6.13005 28.6254 6.04323 28.1889C5.95641 27.7525 6.00097 27.3001 6.17127 26.889C6.34157 26.4778 6.62996 26.1264 6.99997 25.8792C7.36998 25.632 7.80499 25.5 8.25 25.5C8.84673 25.5 9.41903 25.737 9.84099 26.159C10.2629 26.581 10.5 27.1533 10.5 27.75ZM27 27.75C27 28.195 26.868 28.63 26.6208 29C26.3736 29.37 26.0222 29.6584 25.611 29.8287C25.1999 29.999 24.7475 30.0436 24.311 29.9568C23.8746 29.8699 23.4737 29.6557 23.159 29.341C22.8443 29.0263 22.63 28.6254 22.5432 28.1889C22.4564 27.7525 22.501 27.3001 22.6713 26.889C22.8416 26.4778 23.13 26.1264 23.5 25.8792C23.87 25.632 24.305 25.5 24.75 25.5C25.3467 25.5 25.919 25.737 26.341 26.159C26.7629 26.581 27 27.1533 27 27.75Z" fill="black" fill-opacity="0.2"/>
<path d="M27 0H6C4.4087 0 2.88258 0.632141 1.75736 1.75736C0.632141 2.88258 0 4.4087 0 6V30C0 31.5913 0.632141 33.1174 1.75736 34.2426C2.88258 35.3678 4.4087 36 6 36H7.5L4.8 39.6C4.68181 39.7576 4.59582 39.9369 4.54693 40.1277C4.49804 40.3185 4.48722 40.5171 4.51507 40.7121C4.54293 40.9071 4.60893 41.0947 4.70929 41.2642C4.80965 41.4337 4.94241 41.5818 5.1 41.7C5.25758 41.8182 5.43691 41.9042 5.62773 41.9531C5.81855 42.0019 6.01713 42.0128 6.21213 41.9849C6.40713 41.9571 6.59474 41.8911 6.76424 41.7907C6.93374 41.6903 7.08181 41.5576 7.2 41.4L11.25 36H21.75L25.8 41.4C26.0387 41.7183 26.394 41.9287 26.7879 41.9849C27.1817 42.0412 27.5817 41.9387 27.9 41.7C28.2183 41.4613 28.4287 41.106 28.4849 40.7121C28.5412 40.3183 28.4387 39.9183 28.2 39.6L25.5 36H27C28.5913 36 30.1174 35.3678 31.2426 34.2426C32.3679 33.1174 33 31.5913 33 30V6C33 4.4087 32.3679 2.88258 31.2426 1.75736C30.1174 0.632141 28.5913 0 27 0ZM3 18V10.5H15V18H3ZM18 10.5H30V18H18V10.5ZM6 3H27C27.7956 3 28.5587 3.31607 29.1213 3.87868C29.6839 4.44129 30 5.20435 30 6V7.5H3V6C3 5.20435 3.31607 4.44129 3.87868 3.87868C4.44129 3.31607 5.20435 3 6 3ZM27 33H6C5.20435 33 4.44129 32.6839 3.87868 32.1213C3.31607 31.5587 3 30.7956 3 30V21H30V30C30 30.7956 29.6839 31.5587 29.1213 32.1213C28.5587 32.6839 27.7956 33 27 33ZM10.5 27.75C10.5 28.195 10.368 28.63 10.1208 29C9.87357 29.37 9.52217 29.6584 9.11104 29.8287C8.6999 29.999 8.2475 30.0436 7.81104 29.9568C7.37459 29.8699 6.97368 29.6557 6.65901 29.341C6.34434 29.0263 6.13005 28.6254 6.04323 28.1889C5.95641 27.7525 6.00097 27.3001 6.17127 26.889C6.34157 26.4778 6.62996 26.1264 6.99997 25.8792C7.36998 25.632 7.80499 25.5 8.25 25.5C8.84673 25.5 9.41903 25.737 9.84099 26.159C10.2629 26.581 10.5 27.1533 10.5 27.75ZM27 27.75C27 28.195 26.868 28.63 26.6208 29C26.3736 29.37 26.0222 29.6584 25.611 29.8287C25.1999 29.999 24.7475 30.0436 24.311 29.9568C23.8746 29.8699 23.4737 29.6557 23.159 29.341C22.8443 29.0263 22.63 28.6254 22.5432 28.1889C22.4564 27.7525 22.501 27.3001 22.6713 26.889C22.8416 26.4778 23.13 26.1264 23.5 25.8792C23.87 25.632 24.305 25.5 24.75 25.5C25.3467 25.5 25.919 25.737 26.341 26.159C26.7629 26.581 27 27.1533 27 27.75Z" fill="black" fill-opacity="0.2"/>
<path d="M27 0H6C4.4087 0 2.88258 0.632141 1.75736 1.75736C0.632141 2.88258 0 4.4087 0 6V30C0 31.5913 0.632141 33.1174 1.75736 34.2426C2.88258 35.3678 4.4087 36 6 36H7.5L4.8 39.6C4.68181 39.7576 4.59582 39.9369 4.54693 40.1277C4.49804 40.3185 4.48722 40.5171 4.51507 40.7121C4.54293 40.9071 4.60893 41.0947 4.70929 41.2642C4.80965 41.4337 4.94241 41.5818 5.1 41.7C5.25758 41.8182 5.43691 41.9042 5.62773 41.9531C5.81855 42.0019 6.01713 42.0128 6.21213 41.9849C6.40713 41.9571 6.59474 41.8911 6.76424 41.7907C6.93374 41.6903 7.08181 41.5576 7.2 41.4L11.25 36H21.75L25.8 41.4C26.0387 41.7183 26.394 41.9287 26.7879 41.9849C27.1817 42.0412 27.5817 41.9387 27.9 41.7C28.2183 41.4613 28.4287 41.106 28.4849 40.7121C28.5412 40.3183 28.4387 39.9183 28.2 39.6L25.5 36H27C28.5913 36 30.1174 35.3678 31.2426 34.2426C32.3679 33.1174 33 31.5913 33 30V6C33 4.4087 32.3679 2.88258 31.2426 1.75736C30.1174 0.632141 28.5913 0 27 0ZM3 18V10.5H15V18H3ZM18 10.5H30V18H18V10.5ZM6 3H27C27.7956 3 28.5587 3.31607 29.1213 3.87868C29.6839 4.44129 30 5.20435 30 6V7.5H3V6C3 5.20435 3.31607 4.44129 3.87868 3.87868C4.44129 3.31607 5.20435 3 6 3ZM27 33H6C5.20435 33 4.44129 32.6839 3.87868 32.1213C3.31607 31.5587 3 30.7956 3 30V21H30V30C30 30.7956 29.6839 31.5587 29.1213 32.1213C28.5587 32.6839 27.7956 33 27 33ZM10.5 27.75C10.5 28.195 10.368 28.63 10.1208 29C9.87357 29.37 9.52217 29.6584 9.11104 29.8287C8.6999 29.999 8.2475 30.0436 7.81104 29.9568C7.37459 29.8699 6.97368 29.6557 6.65901 29.341C6.34434 29.0263 6.13005 28.6254 6.04323 28.1889C5.95641 27.7525 6.00097 27.3001 6.17127 26.889C6.34157 26.4778 6.62996 26.1264 6.99997 25.8792C7.36998 25.632 7.80499 25.5 8.25 25.5C8.84673 25.5 9.41903 25.737 9.84099 26.159C10.2629 26.581 10.5 27.1533 10.5 27.75ZM27 27.75C27 28.195 26.868 28.63 26.6208 29C26.3736 29.37 26.0222 29.6584 25.611 29.8287C25.1999 29.999 24.7475 30.0436 24.311 29.9568C23.8746 29.8699 23.4737 29.6557 23.159 29.341C22.8443 29.0263 22.63 28.6254 22.5432 28.1889C22.4564 27.7525 22.501 27.3001 22.6713 26.889C22.8416 26.4778 23.13 26.1264 23.5 25.8792C23.87 25.632 24.305 25.5 24.75 25.5C25.3467 25.5 25.919 25.737 26.341 26.159C26.7629 26.581 27 27.1533 27 27.75Z" fill="black" fill-opacity="0.2"/>
</svg>
