<svg width="41" height="39" viewBox="0 0 41 39" fill="none" xmlns="http://www.w3.org/2000/svg">
<path d="M39.8036 26.7262C39.5897 26.5913 39.3452 26.5126 39.0928 26.4976C38.8404 26.4825 38.5882 26.5315 38.3598 26.6399C37.7883 26.9103 37.1576 27.0317 36.5266 26.9929C35.8955 26.9541 35.2845 26.7564 34.7503 26.4181C34.2161 26.0798 33.7762 25.612 33.4713 25.0581C33.1664 24.5042 33.0066 23.8822 33.0066 23.2499C33.0066 22.6177 33.1664 21.9956 33.4713 21.4417C33.7762 20.8878 34.2161 20.42 34.7503 20.0817C35.2845 19.7435 35.8955 19.5457 36.5266 19.507C37.1576 19.4682 37.7883 19.5896 38.3598 19.8599C38.5885 19.9684 38.8409 20.0173 39.0936 20.002C39.3462 19.9867 39.5909 19.9078 39.8048 19.7724C40.0187 19.6371 40.1949 19.4499 40.317 19.2281C40.4391 19.0064 40.5031 18.7574 40.503 18.5043V10.4998C40.503 9.70419 40.1869 8.94113 39.6243 8.37852C39.0617 7.8159 38.2986 7.49983 37.503 7.49983H30.7117C30.7396 7.25081 30.7533 7.00041 30.7529 6.74983C30.7515 5.82793 30.5619 4.91602 30.1956 4.07C29.8294 3.22398 29.2942 2.46167 28.6229 1.8298C27.6934 0.956817 26.5356 0.364982 25.2837 0.122828C24.0317 -0.119326 22.7367 -0.00189253 21.5487 0.46153C20.3608 0.924952 19.3283 1.71541 18.571 2.74136C17.8138 3.76731 17.3626 4.98678 17.2697 6.25857C17.2409 6.67227 17.2497 7.08772 17.296 7.49983H10.5028C9.70715 7.49983 8.94408 7.8159 8.38147 8.37852C7.81886 8.94113 7.50279 9.70419 7.50279 10.4998V16.5411C7.25377 16.5132 7.00336 16.4994 6.75278 16.4999C5.8309 16.5014 4.91903 16.691 4.07303 17.0573C3.22702 17.4236 2.4647 17.9587 1.83276 18.6299C1.19628 19.3022 0.706191 20.0993 0.39346 20.9706C0.0807288 21.842 -0.0478428 22.7688 0.0158707 23.6924C0.123361 25.3188 0.814393 26.8516 1.96189 28.0091C3.10938 29.1666 4.63619 29.8709 6.26153 29.9925C6.6752 30.0222 7.09074 30.0134 7.50279 29.9662V36C7.50279 36.7956 7.81886 37.5587 8.38147 38.1213C8.94408 38.6839 9.70715 39 10.5028 39H37.503C38.2986 39 39.0617 38.6839 39.6243 38.1213C40.1869 37.5587 40.503 36.7956 40.503 36V27.9956C40.5031 27.7421 40.4391 27.4928 40.3168 27.2708C40.1945 27.0488 40.0179 26.8615 39.8036 26.7262ZM37.503 36H10.5028V27.9956C10.5029 27.7425 10.4389 27.4934 10.3168 27.2717C10.1948 27.0499 10.0186 26.8627 9.80466 26.7274C9.59075 26.5921 9.34607 26.5131 9.09341 26.4978C8.84076 26.4825 8.58834 26.5314 8.35967 26.6399C7.7881 26.9103 7.15746 27.0317 6.52639 26.9929C5.89531 26.9541 5.28429 26.7564 4.75012 26.4181C4.21595 26.0798 3.77598 25.612 3.47112 25.0581C3.16625 24.5042 3.00639 23.8822 3.00639 23.2499C3.00639 22.6177 3.16625 21.9956 3.47112 21.4417C3.77598 20.8878 4.21595 20.42 4.75012 20.0817C5.28429 19.7435 5.89531 19.5457 6.52639 19.507C7.15746 19.4682 7.7881 19.5896 8.35967 19.8599C8.58834 19.9684 8.84076 20.0173 9.09341 20.002C9.34607 19.9867 9.59075 19.9078 9.80466 19.7724C10.0186 19.6371 10.1948 19.4499 10.3168 19.2281C10.4389 19.0064 10.5029 18.7574 10.5028 18.5043V10.4998H19.2572C19.5103 10.4999 19.7594 10.436 19.9811 10.3139C20.2028 10.1918 20.3901 10.0156 20.5254 9.80171C20.6607 9.58779 20.7397 9.34311 20.755 9.09046C20.7703 8.8378 20.7214 8.58538 20.6129 8.35671C20.3425 7.78514 20.2211 7.15451 20.2599 6.52343C20.2987 5.89236 20.4964 5.28133 20.8347 4.74716C21.173 4.213 21.6408 3.77303 22.1947 3.46816C22.7486 3.1633 23.3706 3.00343 24.0029 3.00343C24.6351 3.00343 25.2571 3.1633 25.8111 3.46816C26.365 3.77303 26.8328 4.213 27.1711 4.74716C27.5093 5.28133 27.7071 5.89236 27.7458 6.52343C27.7846 7.15451 27.6632 7.78514 27.3929 8.35671C27.2844 8.58538 27.2355 8.8378 27.2508 9.09046C27.2661 9.34311 27.345 9.58779 27.4804 9.80171C27.6157 10.0156 27.8029 10.1918 28.0246 10.3139C28.2464 10.436 28.4954 10.4999 28.7485 10.4998H37.503V16.543C37.0909 16.4958 36.6754 16.487 36.2617 16.5168C34.5159 16.6404 32.8864 17.4372 31.7168 18.7393C30.5473 20.0413 29.9292 21.7467 29.9929 23.4957C30.0566 25.2447 30.7972 26.9006 32.0584 28.1141C33.3196 29.3275 35.0028 30.0037 36.7529 30C37.0035 30.0004 37.2539 29.9866 37.503 29.9587V36Z" fill="#767676"/>
</svg>
