<svg width="40" height="36" viewBox="0 0 40 36" fill="none" xmlns="http://www.w3.org/2000/svg">
<path d="M40 12C40.0008 11.8605 39.9814 11.7217 39.9423 11.5875L37.1827 2.175C36.9972 1.55046 36.6095 1.00118 36.0774 0.609175C35.5454 0.21717 34.8976 0.00347426 34.2307 0H5.76923C5.10237 0.00347426 4.45456 0.21717 3.92253 0.609175C3.3905 1.00118 3.00279 1.55046 2.81731 2.175L0.0596165 11.5875C0.0198892 11.7216 -0.000181427 11.8604 1.23561e-06 12V15C1.23561e-06 16.1643 0.27804 17.3127 0.812099 18.3541C1.34616 19.3955 2.12157 20.3014 3.07692 21V34.5C3.07692 34.8978 3.23901 35.2794 3.52753 35.5607C3.81604 35.842 4.20736 36 4.61538 36H35.3846C35.7926 36 36.1839 35.842 36.4725 35.5607C36.761 35.2794 36.923 34.8978 36.923 34.5V21C37.8784 20.3014 38.6538 19.3955 39.1879 18.3541C39.7219 17.3127 40 16.1643 40 15V12ZM5.76923 3H34.2307L36.4269 10.5H3.57885L5.76923 3ZM15.3846 13.5H24.6154V15C24.6154 16.1935 24.1291 17.3381 23.2636 18.182C22.398 19.0259 21.2241 19.5 20 19.5C18.7759 19.5 17.602 19.0259 16.7364 18.182C15.8709 17.3381 15.3846 16.1935 15.3846 15V13.5ZM12.3077 13.5V15C12.3074 15.7738 12.1025 16.5345 11.7127 17.2086C11.3229 17.8826 10.7614 18.4473 10.0824 18.848C9.40347 19.2487 8.63 19.472 7.83673 19.4962C7.04345 19.5204 6.25718 19.3448 5.55384 18.9862C5.44682 18.905 5.32911 18.8382 5.20384 18.7875C4.55207 18.3807 4.01567 17.8206 3.64401 17.1587C3.27234 16.4969 3.07733 15.7546 3.07692 15V13.5H12.3077ZM33.8461 33H6.15384V22.35C6.6603 22.4495 7.17565 22.4998 7.6923 22.5C8.8865 22.5 10.0643 22.2289 11.1324 21.7082C12.2005 21.1875 13.1296 20.4315 13.8461 19.5C14.5627 20.4315 15.4918 21.1875 16.5599 21.7082C17.628 22.2289 18.8058 22.5 20 22.5C21.1942 22.5 22.372 22.2289 23.4401 21.7082C24.5082 21.1875 25.4373 20.4315 26.1538 19.5C26.8703 20.4315 27.7994 21.1875 28.8676 21.7082C29.9357 22.2289 31.1135 22.5 32.3077 22.5C32.8243 22.4998 33.3397 22.4495 33.8461 22.35V33ZM34.7942 18.7875C34.6706 18.8383 34.5542 18.9045 34.4481 18.9844C33.7448 19.3433 32.9585 19.5193 32.1651 19.4954C31.3717 19.4715 30.5981 19.2485 29.9189 18.8479C29.2397 18.4473 28.6779 17.8828 28.2879 17.2087C27.8979 16.5347 27.6927 15.7739 27.6923 15V13.5H36.923V15C36.9224 15.7547 36.7271 16.4972 36.3551 17.159C35.9831 17.8209 35.4463 18.3809 34.7942 18.7875Z" fill="#767676"/>
</svg>
