<svg width="45" height="32" viewBox="0 0 45 32" fill="none" xmlns="http://www.w3.org/2000/svg">
<path d="M44.8913 11.4375L42.2663 4.875C42.0436 4.31976 41.6593 3.84418 41.1632 3.50987C40.667 3.17557 40.082 2.99794 39.4838 3H33V1.5C33 1.10218 32.842 0.720645 32.5607 0.43934C32.2794 0.158036 31.8978 0 31.5 0H3C2.20435 0 1.44129 0.31607 0.87868 0.87868C0.316071 1.44129 0 2.20435 0 3V24C0 24.7956 0.316071 25.5587 0.87868 26.1213C1.44129 26.6839 2.20435 27 3 27H6.1875C6.51795 28.2906 7.26855 29.4346 8.32097 30.2515C9.37338 31.0684 10.6677 31.5118 12 31.5118C13.3323 31.5118 14.6266 31.0684 15.679 30.2515C16.7315 29.4346 17.482 28.2906 17.8125 27H27.1875C27.518 28.2906 28.2686 29.4346 29.321 30.2515C30.3734 31.0684 31.6677 31.5118 33 31.5118C34.3323 31.5118 35.6266 31.0684 36.679 30.2515C37.7315 29.4346 38.4821 28.2906 38.8125 27H42C42.7957 27 43.5587 26.6839 44.1213 26.1213C44.6839 25.5587 45 24.7956 45 24V12C45.0005 11.8072 44.9636 11.6162 44.8913 11.4375ZM33 6H39.4838L41.2838 10.5H33V6ZM3 3H30V15H3V3ZM12 28.5C11.4067 28.5 10.8266 28.3241 10.3333 27.9944C9.83994 27.6648 9.45542 27.1962 9.22836 26.6481C9.0013 26.0999 8.94189 25.4967 9.05764 24.9147C9.1734 24.3328 9.45912 23.7982 9.87868 23.3787C10.2982 22.9591 10.8328 22.6734 11.4147 22.5576C11.9967 22.4419 12.5999 22.5013 13.1481 22.7284C13.6962 22.9554 14.1648 23.3399 14.4944 23.8333C14.8241 24.3266 15 24.9067 15 25.5C15 26.2956 14.6839 27.0587 14.1213 27.6213C13.5587 28.1839 12.7957 28.5 12 28.5ZM27.1875 24H17.8125C17.482 22.7094 16.7315 21.5654 15.679 20.7485C14.6266 19.9316 13.3323 19.4882 12 19.4882C10.6677 19.4882 9.37338 19.9316 8.32097 20.7485C7.26855 21.5654 6.51795 22.7094 6.1875 24H3V18H30V20.3081C29.3103 20.7068 28.7065 21.2384 28.2237 21.8722C27.7409 22.5059 27.3887 23.2291 27.1875 24ZM33 28.5C32.4067 28.5 31.8266 28.3241 31.3333 27.9944C30.8399 27.6648 30.4554 27.1962 30.2284 26.6481C30.0013 26.0999 29.9419 25.4967 30.0576 24.9147C30.1734 24.3328 30.4591 23.7982 30.8787 23.3787C31.2982 22.9591 31.8328 22.6734 32.4147 22.5576C32.9967 22.4419 33.5999 22.5013 34.1481 22.7284C34.6962 22.9554 35.1648 23.3399 35.4944 23.8333C35.8241 24.3266 36 24.9067 36 25.5C36 26.2956 35.6839 27.0587 35.1213 27.6213C34.5587 28.1839 33.7957 28.5 33 28.5ZM42 24H38.8125C38.4781 22.7125 37.7261 21.5723 36.6742 20.758C35.6224 19.9437 34.3302 19.5013 33 19.5V13.5H42V24Z" fill="#222222"/>
<path d="M44.8913 11.4375L42.2663 4.875C42.0436 4.31976 41.6593 3.84418 41.1632 3.50987C40.667 3.17557 40.082 2.99794 39.4838 3H33V1.5C33 1.10218 32.842 0.720645 32.5607 0.43934C32.2794 0.158036 31.8978 0 31.5 0H3C2.20435 0 1.44129 0.31607 0.87868 0.87868C0.316071 1.44129 0 2.20435 0 3V24C0 24.7956 0.316071 25.5587 0.87868 26.1213C1.44129 26.6839 2.20435 27 3 27H6.1875C6.51795 28.2906 7.26855 29.4346 8.32097 30.2515C9.37338 31.0684 10.6677 31.5118 12 31.5118C13.3323 31.5118 14.6266 31.0684 15.679 30.2515C16.7315 29.4346 17.482 28.2906 17.8125 27H27.1875C27.518 28.2906 28.2686 29.4346 29.321 30.2515C30.3734 31.0684 31.6677 31.5118 33 31.5118C34.3323 31.5118 35.6266 31.0684 36.679 30.2515C37.7315 29.4346 38.4821 28.2906 38.8125 27H42C42.7957 27 43.5587 26.6839 44.1213 26.1213C44.6839 25.5587 45 24.7956 45 24V12C45.0005 11.8072 44.9636 11.6162 44.8913 11.4375ZM33 6H39.4838L41.2838 10.5H33V6ZM3 3H30V15H3V3ZM12 28.5C11.4067 28.5 10.8266 28.3241 10.3333 27.9944C9.83994 27.6648 9.45542 27.1962 9.22836 26.6481C9.0013 26.0999 8.94189 25.4967 9.05764 24.9147C9.1734 24.3328 9.45912 23.7982 9.87868 23.3787C10.2982 22.9591 10.8328 22.6734 11.4147 22.5576C11.9967 22.4419 12.5999 22.5013 13.1481 22.7284C13.6962 22.9554 14.1648 23.3399 14.4944 23.8333C14.8241 24.3266 15 24.9067 15 25.5C15 26.2956 14.6839 27.0587 14.1213 27.6213C13.5587 28.1839 12.7957 28.5 12 28.5ZM27.1875 24H17.8125C17.482 22.7094 16.7315 21.5654 15.679 20.7485C14.6266 19.9316 13.3323 19.4882 12 19.4882C10.6677 19.4882 9.37338 19.9316 8.32097 20.7485C7.26855 21.5654 6.51795 22.7094 6.1875 24H3V18H30V20.3081C29.3103 20.7068 28.7065 21.2384 28.2237 21.8722C27.7409 22.5059 27.3887 23.2291 27.1875 24ZM33 28.5C32.4067 28.5 31.8266 28.3241 31.3333 27.9944C30.8399 27.6648 30.4554 27.1962 30.2284 26.6481C30.0013 26.0999 29.9419 25.4967 30.0576 24.9147C30.1734 24.3328 30.4591 23.7982 30.8787 23.3787C31.2982 22.9591 31.8328 22.6734 32.4147 22.5576C32.9967 22.4419 33.5999 22.5013 34.1481 22.7284C34.6962 22.9554 35.1648 23.3399 35.4944 23.8333C35.8241 24.3266 36 24.9067 36 25.5C36 26.2956 35.6839 27.0587 35.1213 27.6213C34.5587 28.1839 33.7957 28.5 33 28.5ZM42 24H38.8125C38.4781 22.7125 37.7261 21.5723 36.6742 20.758C35.6224 19.9437 34.3302 19.5013 33 19.5V13.5H42V24Z" fill="black" fill-opacity="0.2"/>
<path d="M44.8913 11.4375L42.2663 4.875C42.0436 4.31976 41.6593 3.84418 41.1632 3.50987C40.667 3.17557 40.082 2.99794 39.4838 3H33V1.5C33 1.10218 32.842 0.720645 32.5607 0.43934C32.2794 0.158036 31.8978 0 31.5 0H3C2.20435 0 1.44129 0.31607 0.87868 0.87868C0.316071 1.44129 0 2.20435 0 3V24C0 24.7956 0.316071 25.5587 0.87868 26.1213C1.44129 26.6839 2.20435 27 3 27H6.1875C6.51795 28.2906 7.26855 29.4346 8.32097 30.2515C9.37338 31.0684 10.6677 31.5118 12 31.5118C13.3323 31.5118 14.6266 31.0684 15.679 30.2515C16.7315 29.4346 17.482 28.2906 17.8125 27H27.1875C27.518 28.2906 28.2686 29.4346 29.321 30.2515C30.3734 31.0684 31.6677 31.5118 33 31.5118C34.3323 31.5118 35.6266 31.0684 36.679 30.2515C37.7315 29.4346 38.4821 28.2906 38.8125 27H42C42.7957 27 43.5587 26.6839 44.1213 26.1213C44.6839 25.5587 45 24.7956 45 24V12C45.0005 11.8072 44.9636 11.6162 44.8913 11.4375ZM33 6H39.4838L41.2838 10.5H33V6ZM3 3H30V15H3V3ZM12 28.5C11.4067 28.5 10.8266 28.3241 10.3333 27.9944C9.83994 27.6648 9.45542 27.1962 9.22836 26.6481C9.0013 26.0999 8.94189 25.4967 9.05764 24.9147C9.1734 24.3328 9.45912 23.7982 9.87868 23.3787C10.2982 22.9591 10.8328 22.6734 11.4147 22.5576C11.9967 22.4419 12.5999 22.5013 13.1481 22.7284C13.6962 22.9554 14.1648 23.3399 14.4944 23.8333C14.8241 24.3266 15 24.9067 15 25.5C15 26.2956 14.6839 27.0587 14.1213 27.6213C13.5587 28.1839 12.7957 28.5 12 28.5ZM27.1875 24H17.8125C17.482 22.7094 16.7315 21.5654 15.679 20.7485C14.6266 19.9316 13.3323 19.4882 12 19.4882C10.6677 19.4882 9.37338 19.9316 8.32097 20.7485C7.26855 21.5654 6.51795 22.7094 6.1875 24H3V18H30V20.3081C29.3103 20.7068 28.7065 21.2384 28.2237 21.8722C27.7409 22.5059 27.3887 23.2291 27.1875 24ZM33 28.5C32.4067 28.5 31.8266 28.3241 31.3333 27.9944C30.8399 27.6648 30.4554 27.1962 30.2284 26.6481C30.0013 26.0999 29.9419 25.4967 30.0576 24.9147C30.1734 24.3328 30.4591 23.7982 30.8787 23.3787C31.2982 22.9591 31.8328 22.6734 32.4147 22.5576C32.9967 22.4419 33.5999 22.5013 34.1481 22.7284C34.6962 22.9554 35.1648 23.3399 35.4944 23.8333C35.8241 24.3266 36 24.9067 36 25.5C36 26.2956 35.6839 27.0587 35.1213 27.6213C34.5587 28.1839 33.7957 28.5 33 28.5ZM42 24H38.8125C38.4781 22.7125 37.7261 21.5723 36.6742 20.758C35.6224 19.9437 34.3302 19.5013 33 19.5V13.5H42V24Z" fill="black" fill-opacity="0.2"/>
<path d="M44.8913 11.4375L42.2663 4.875C42.0436 4.31976 41.6593 3.84418 41.1632 3.50987C40.667 3.17557 40.082 2.99794 39.4838 3H33V1.5C33 1.10218 32.842 0.720645 32.5607 0.43934C32.2794 0.158036 31.8978 0 31.5 0H3C2.20435 0 1.44129 0.31607 0.87868 0.87868C0.316071 1.44129 0 2.20435 0 3V24C0 24.7956 0.316071 25.5587 0.87868 26.1213C1.44129 26.6839 2.20435 27 3 27H6.1875C6.51795 28.2906 7.26855 29.4346 8.32097 30.2515C9.37338 31.0684 10.6677 31.5118 12 31.5118C13.3323 31.5118 14.6266 31.0684 15.679 30.2515C16.7315 29.4346 17.482 28.2906 17.8125 27H27.1875C27.518 28.2906 28.2686 29.4346 29.321 30.2515C30.3734 31.0684 31.6677 31.5118 33 31.5118C34.3323 31.5118 35.6266 31.0684 36.679 30.2515C37.7315 29.4346 38.4821 28.2906 38.8125 27H42C42.7957 27 43.5587 26.6839 44.1213 26.1213C44.6839 25.5587 45 24.7956 45 24V12C45.0005 11.8072 44.9636 11.6162 44.8913 11.4375ZM33 6H39.4838L41.2838 10.5H33V6ZM3 3H30V15H3V3ZM12 28.5C11.4067 28.5 10.8266 28.3241 10.3333 27.9944C9.83994 27.6648 9.45542 27.1962 9.22836 26.6481C9.0013 26.0999 8.94189 25.4967 9.05764 24.9147C9.1734 24.3328 9.45912 23.7982 9.87868 23.3787C10.2982 22.9591 10.8328 22.6734 11.4147 22.5576C11.9967 22.4419 12.5999 22.5013 13.1481 22.7284C13.6962 22.9554 14.1648 23.3399 14.4944 23.8333C14.8241 24.3266 15 24.9067 15 25.5C15 26.2956 14.6839 27.0587 14.1213 27.6213C13.5587 28.1839 12.7957 28.5 12 28.5ZM27.1875 24H17.8125C17.482 22.7094 16.7315 21.5654 15.679 20.7485C14.6266 19.9316 13.3323 19.4882 12 19.4882C10.6677 19.4882 9.37338 19.9316 8.32097 20.7485C7.26855 21.5654 6.51795 22.7094 6.1875 24H3V18H30V20.3081C29.3103 20.7068 28.7065 21.2384 28.2237 21.8722C27.7409 22.5059 27.3887 23.2291 27.1875 24ZM33 28.5C32.4067 28.5 31.8266 28.3241 31.3333 27.9944C30.8399 27.6648 30.4554 27.1962 30.2284 26.6481C30.0013 26.0999 29.9419 25.4967 30.0576 24.9147C30.1734 24.3328 30.4591 23.7982 30.8787 23.3787C31.2982 22.9591 31.8328 22.6734 32.4147 22.5576C32.9967 22.4419 33.5999 22.5013 34.1481 22.7284C34.6962 22.9554 35.1648 23.3399 35.4944 23.8333C35.8241 24.3266 36 24.9067 36 25.5C36 26.2956 35.6839 27.0587 35.1213 27.6213C34.5587 28.1839 33.7957 28.5 33 28.5ZM42 24H38.8125C38.4781 22.7125 37.7261 21.5723 36.6742 20.758C35.6224 19.9437 34.3302 19.5013 33 19.5V13.5H42V24Z" fill="black" fill-opacity="0.2"/>
</svg>
