<svg width="35" height="32" viewBox="0 0 35 32" fill="none" xmlns="http://www.w3.org/2000/svg">
<path d="M26.5125 13.2042C26.3667 12.9042 26.2073 12.6125 26.0344 12.3292C27.0251 10.1452 27.1412 7.66459 26.3589 5.39761C25.5765 3.13063 23.955 1.24968 21.8281 0.141691C21.5341 -0.011637 21.1912 -0.0418874 20.8749 0.0575948C20.5586 0.157077 20.2947 0.378143 20.1414 0.67216C19.9881 0.966177 19.9578 1.30906 20.0573 1.62538C20.1568 1.9417 20.3779 2.20555 20.6719 2.35888C22.0384 3.06991 23.1265 4.21926 23.7618 5.62261C24.397 7.02597 24.5425 8.602 24.175 10.0979C22.3427 8.44775 19.9643 7.53456 17.4984 7.53456C15.0326 7.53456 12.6541 8.44775 10.8219 10.0979C10.4546 8.60164 10.6006 7.02535 11.2364 5.62196C11.8722 4.21856 12.961 3.06941 14.3281 2.35888C14.4737 2.28296 14.6029 2.17911 14.7084 2.05325C14.8138 1.9274 14.8934 1.78201 14.9427 1.62538C14.9919 1.46876 15.0099 1.30396 14.9954 1.14041C14.981 0.976853 14.9345 0.817743 14.8586 0.67216C14.7827 0.526577 14.6788 0.397374 14.553 0.291927C14.4271 0.186479 14.2817 0.106853 14.1251 0.0575948C13.9685 0.00833622 13.8037 -0.00959028 13.6401 0.00483902C13.4766 0.0192683 13.3175 0.0657708 13.1719 0.141691C11.0447 1.24941 9.42293 3.13024 8.64024 5.39725C7.85754 7.66426 7.97343 10.145 8.96406 12.3292C8.79054 12.6116 8.63148 12.9026 8.4875 13.2011C6.1659 13.4243 4.01059 14.5039 2.44153 16.2295C0.872482 17.9552 0.0021032 20.2031 0 22.5354C0 22.867 0.131696 23.1849 0.366116 23.4193C0.600537 23.6537 0.918479 23.7854 1.25 23.7854C1.58152 23.7854 1.89946 23.6537 2.13388 23.4193C2.3683 23.1849 2.5 22.867 2.5 22.5354C2.5022 21.0148 3.00747 19.5376 3.93705 18.3341C4.86664 17.1307 6.16828 16.2686 7.63906 15.8823C7.23733 18.2674 7.71448 20.7172 8.98195 22.7772C10.2494 24.8371 12.2212 26.3674 14.5312 27.0839C13.4471 28.3132 11.9594 29.1147 10.3364 29.3439C8.71337 29.5731 7.06188 29.2149 5.67969 28.3339C5.54154 28.2392 5.38579 28.1733 5.22166 28.1399C5.05754 28.1066 4.88839 28.1066 4.72427 28.14C4.56015 28.1733 4.4044 28.2393 4.26627 28.334C4.12814 28.4287 4.01044 28.5501 3.92017 28.6912C3.8299 28.8323 3.7689 28.99 3.74078 29.1551C3.71267 29.3202 3.71801 29.4893 3.7565 29.6523C3.79499 29.8152 3.86584 29.9688 3.96484 30.1039C4.06384 30.239 4.18898 30.3528 4.33281 30.4386C5.37416 31.1026 6.53646 31.5544 7.75294 31.7679C8.96942 31.9814 10.2161 31.9525 11.4213 31.6827C12.6266 31.4129 13.7667 30.9077 14.776 30.196C15.7854 29.4842 16.6442 28.5801 17.3031 27.5354H17.5H17.6969C18.3556 28.5811 19.2147 29.4861 20.2245 30.1985C21.2343 30.911 22.375 31.4167 23.581 31.6866C24.787 31.9566 26.0345 31.9854 27.2517 31.7715C28.4689 31.5576 29.6318 31.1051 30.6734 30.4401C30.8173 30.3544 30.9424 30.2405 31.0414 30.1055C31.1404 29.9704 31.2113 29.8168 31.2498 29.6538C31.2882 29.4908 31.2936 29.3218 31.2655 29.1567C31.2374 28.9916 31.1763 28.8338 31.0861 28.6928C30.9958 28.5517 30.8781 28.4302 30.74 28.3355C30.6019 28.2408 30.4461 28.1749 30.282 28.1415C30.1179 28.1082 29.9487 28.1082 29.7846 28.1415C29.6205 28.1748 29.4647 28.2408 29.3266 28.3354C27.9444 29.2165 26.2929 29.5747 24.6699 29.3455C23.0469 29.1163 21.5592 28.3148 20.475 27.0854C22.7839 26.3677 24.7542 24.837 26.0205 22.7771C27.2867 20.7173 27.763 18.2681 27.3609 15.8839C28.8315 16.2701 30.1329 17.1319 31.0625 18.3351C31.992 19.5382 32.4975 21.015 32.5 22.5354C32.5 22.867 32.6317 23.1849 32.8661 23.4193C33.1005 23.6537 33.4185 23.7854 33.75 23.7854C34.0815 23.7854 34.3995 23.6537 34.6339 23.4193C34.8683 23.1849 35 22.867 35 22.5354C34.9971 20.2037 34.1264 17.9565 32.5574 16.2315C30.9884 14.5066 28.8336 13.4274 26.5125 13.2042ZM17.5 10.0354C18.5472 10.0352 19.5828 10.2546 20.5399 10.6796C21.4969 11.1046 22.3542 11.7256 23.0562 12.5026C22.4183 13.3784 21.5824 14.0911 20.6166 14.5824C19.6509 15.0737 18.5827 15.3298 17.4992 15.3298C16.4157 15.3298 15.3475 15.0737 14.3818 14.5824C13.4161 14.0911 12.5801 13.3784 11.9422 12.5026C12.6443 11.7253 13.5018 11.104 14.4592 10.679C15.4166 10.254 16.4525 10.0348 17.5 10.0354ZM17.5187 17.8354L17.5 17.8667L17.4812 17.8354H17.5187ZM10 17.5354C9.99961 16.9217 10.0752 16.3103 10.225 15.7151C11.2469 15.8424 12.2271 16.1976 13.0933 16.7544C13.9595 17.3113 14.6895 18.0556 15.2295 18.9325C15.7694 19.8093 16.1055 20.7962 16.2129 21.8204C16.3203 22.8445 16.1963 23.8797 15.85 24.8495C14.1906 24.4732 12.7082 23.5447 11.6454 22.2159C10.5826 20.8872 10.0025 19.2369 10 17.5354ZM19.1516 24.8495C18.8053 23.8797 18.6812 22.8445 18.7886 21.8204C18.896 20.7962 19.2321 19.8093 19.7721 18.9325C20.312 18.0556 21.0421 17.3113 21.9083 16.7544C22.7745 16.1976 23.7547 15.8424 24.7766 15.7151C25.0189 16.6847 25.065 17.6929 24.9121 18.6805C24.7593 19.6681 24.4106 20.6152 23.8866 21.4662C23.3625 22.3172 22.6737 23.0548 21.8606 23.6358C21.0475 24.2168 20.1264 24.6295 19.1516 24.8495Z" fill="black"/>
</svg>
