<svg width="26" height="16" viewBox="0 0 26 16" fill="none" xmlns="http://www.w3.org/2000/svg">
<path fill-rule="evenodd" clip-rule="evenodd" d="M4.0843 3.14487C2.95291 3.95947 2 5.32592 2 7.66667C2 10.0074 2.95291 11.3739 4.0843 12.1885C5.26669 13.0398 6.71558 13.3333 7.66667 13.3333H19.6667C20.219 13.3333 20.6667 13.781 20.6667 14.3333C20.6667 14.8856 20.219 15.3333 19.6667 15.3333H7.66667C6.39553 15.3333 4.51109 14.9602 2.9157 13.8115C1.26931 12.6261 0 10.6593 0 7.66667C0 4.67408 1.26931 2.7072 2.9157 1.5218C4.51109 0.373114 6.39553 0 7.66667 0H18.3333C19.6045 0 21.4889 0.373114 23.0843 1.5218C24.7307 2.7072 26 4.67408 26 7.66667C26 9.88423 25.3026 11.5582 24.2375 12.7689C23.8727 13.1835 23.2408 13.2239 22.8261 12.8591C22.4115 12.4943 22.3711 11.8624 22.7359 11.4477C23.4568 10.6285 24 9.43403 24 7.66667C24 5.32592 23.0471 3.95947 21.9157 3.14487C20.7333 2.29355 19.2844 2 18.3333 2H7.66667C6.71558 2 5.26669 2.29355 4.0843 3.14487Z" fill="#CE0800"/>
</svg>
