<svg width="45" height="39" viewBox="0 0 45 39" fill="none" xmlns="http://www.w3.org/2000/svg">
<path d="M20.25 30C20.25 30.3978 20.092 30.7794 19.8107 31.0607C19.5294 31.342 19.1478 31.5 18.75 31.5H13.5C13.1022 31.5 12.7206 31.342 12.4393 31.0607C12.158 30.7794 12 30.3978 12 30C12 29.6022 12.158 29.2206 12.4393 28.9393C12.7206 28.658 13.1022 28.5 13.5 28.5H18.75C19.1478 28.5 19.5294 28.658 19.8107 28.9393C20.092 29.2206 20.25 29.6022 20.25 30ZM31.5 28.5H26.25C25.8522 28.5 25.4706 28.658 25.1893 28.9393C24.908 29.2206 24.75 29.6022 24.75 30C24.75 30.3978 24.908 30.7794 25.1893 31.0607C25.4706 31.342 25.8522 31.5 26.25 31.5H31.5C31.8978 31.5 32.2794 31.342 32.5607 31.0607C32.842 30.7794 33 30.3978 33 30C33 29.6022 32.842 29.2206 32.5607 28.9393C32.2794 28.658 31.8978 28.5 31.5 28.5ZM45 37.5C45 37.8978 44.842 38.2794 44.5607 38.5607C44.2794 38.842 43.8978 39 43.5 39H1.5C1.10218 39 0.720644 38.842 0.43934 38.5607C0.158035 38.2794 0 37.8978 0 37.5C0 37.1022 0.158035 36.7206 0.43934 36.4393C0.720644 36.158 1.10218 36 1.5 36H4.5V13.5C4.5 13.2214 4.57757 12.9484 4.72402 12.7114C4.87048 12.4744 5.08002 12.2829 5.32918 12.1584C5.57834 12.0338 5.85727 11.981 6.13471 12.0061C6.41215 12.0311 6.67715 12.1329 6.9 12.3L16.5 19.5V13.5C16.5 13.2214 16.5776 12.9484 16.724 12.7114C16.8705 12.4744 17.08 12.2829 17.3292 12.1584C17.5783 12.0338 17.8573 11.981 18.1347 12.0061C18.4122 12.0311 18.6771 12.1329 18.9 12.3L26.1637 17.7469L28.3313 2.57625C28.4362 1.86254 28.7936 1.21012 29.3386 0.737424C29.8835 0.264728 30.5799 0.00308876 31.3013 0H34.6987C35.4201 0.00308876 36.1165 0.264728 36.6614 0.737424C37.2064 1.21012 37.5638 1.86254 37.6687 2.57625L40.4812 22.2881C40.4812 22.2881 40.4963 22.4344 40.4963 22.5V36H43.4963C43.6935 35.9995 43.889 36.0379 44.0714 36.1131C44.2538 36.1883 44.4196 36.2987 44.5593 36.438C44.699 36.5773 44.8098 36.7429 44.8855 36.9251C44.9611 37.1073 45 37.3027 45 37.5ZM28.9012 19.8L30.5006 21H37.2712L34.6987 3H31.3013L28.9012 19.8ZM7.5 36H37.5V24H30C29.6754 24 29.3596 23.8947 29.1 23.7L26.4 21.675L19.5 16.5V22.5C19.5 22.7786 19.4224 23.0516 19.276 23.2886C19.1295 23.5256 18.92 23.7171 18.6708 23.8416C18.4217 23.9662 18.1427 24.019 17.8653 23.9939C17.5878 23.9689 17.3229 23.8671 17.1 23.7L7.5 16.5V36Z" fill="#767676"/>
</svg>
