<svg width="45" height="47" viewBox="0 0 45 47" fill="none" xmlns="http://www.w3.org/2000/svg">
<path fill-rule="evenodd" clip-rule="evenodd" d="M20.3569 0L15.0374 13.9486L10.9472 8.92C6.74213 12.0094 3.79017 16.7723 3.15181 22.3619C1.93549 33.0121 9.5832 42.6319 20.2335 43.8482C30.8837 45.0645 40.5035 37.4168 41.7198 26.7665C42.9361 16.1163 35.2884 6.49653 24.6381 5.28021C23.8084 5.18545 23.2125 4.43596 23.3073 3.60619C23.4021 2.77643 24.1515 2.18059 24.9813 2.27535C37.2911 3.6812 46.1305 14.7999 44.7247 27.1097C43.3188 39.4195 32.2001 48.2589 19.8903 46.8531C7.58049 45.4472 -1.2589 34.3285 0.146949 22.0187C0.878904 15.6096 4.24485 10.1416 9.03685 6.57143L5.61735 2.3675L20.3569 0ZM27.4689 24.5377C27.4689 25.6538 27.2542 26.5998 26.825 27.3758C26.3957 28.1518 25.8146 28.7412 25.0815 29.144C24.3518 29.5469 23.5329 29.7483 22.6248 29.7483C21.7135 29.7483 20.8929 29.5452 20.1632 29.1391C19.4334 28.7329 18.8539 28.1435 18.4247 27.3709C17.9987 26.5949 17.7857 25.6505 17.7857 24.5377C17.7857 23.4217 17.9987 22.4756 18.4247 21.6997C18.8539 20.9237 19.4334 20.3343 20.1632 19.9314C20.8929 19.5286 21.7135 19.3272 22.6248 19.3272C23.5329 19.3272 24.3518 19.5286 25.0815 19.9314C25.8146 20.3343 26.3957 20.9237 26.825 21.6997C27.2542 22.4756 27.4689 23.4217 27.4689 24.5377ZM24.9626 24.5377C24.9626 23.8773 24.8685 23.3193 24.6803 22.8636C24.4954 22.4079 24.2279 22.0629 23.8779 21.8284C23.5312 21.594 23.1135 21.4768 22.6248 21.4768C22.1394 21.4768 21.7217 21.594 21.3717 21.8284C21.0217 22.0629 20.7526 22.4079 20.5644 22.8636C20.3794 23.3193 20.287 23.8773 20.287 24.5377C20.287 25.1981 20.3794 25.7562 20.5644 26.2119C20.7526 26.6675 21.0217 27.0126 21.3717 27.247C21.7217 27.4815 22.1394 27.5987 22.6248 27.5987C23.1135 27.5987 23.5312 27.4815 23.8779 27.247C24.2279 27.0126 24.4954 26.6675 24.6803 26.2119C24.8685 25.7562 24.9626 25.1981 24.9626 24.5377ZM9.28634 29.6096V19.4658H16.3592V21.457H11.7381V23.5372H15.9977V25.5333H11.7381V27.6185H16.3592V29.6096H9.28634ZM31.352 19.4658H28.9003V29.6096H35.572V27.6185H31.352V19.4658Z" fill="#222222"/>
</svg>
