<svg width="36" height="39" viewBox="0 0 36 39" fill="none" xmlns="http://www.w3.org/2000/svg">
<path d="M25.496 37.5C25.496 37.8978 25.3379 38.2794 25.0566 38.5607C24.7753 38.842 24.3938 39 23.996 39H11.996C11.5981 39 11.2166 38.842 10.9353 38.5607C10.654 38.2794 10.496 37.8978 10.496 37.5C10.496 37.1022 10.654 36.7206 10.9353 36.4393C11.2166 36.158 11.5981 36 11.996 36H23.996C24.3938 36 24.7753 36.158 25.0566 36.4393C25.3379 36.7206 25.496 37.1022 25.496 37.5ZM35.5928 31.5C35.3326 31.9585 34.9547 32.3392 34.4982 32.6029C34.0417 32.8666 33.5231 33.0036 32.996 33H2.99595C2.46858 32.9993 1.95072 32.8596 1.49456 32.5949C1.0384 32.3303 0.660056 31.9501 0.39767 31.4926C0.135285 31.0351 -0.00187376 30.5166 1.93344e-05 29.9892C0.00191243 29.4619 0.14279 28.9443 0.408453 28.4888C1.44908 26.6963 2.99595 21.6262 2.99595 15C2.99595 11.0218 4.57631 7.20644 7.38935 4.3934C10.2024 1.58035 14.0177 0 17.996 0C21.9742 0 25.7895 1.58035 28.6026 4.3934C31.4156 7.20644 32.996 11.0218 32.996 15C32.996 21.6244 34.5447 26.6963 35.5853 28.4888C35.8536 28.9449 35.9956 29.4644 35.9966 29.9936C35.9976 30.5229 35.8576 31.0428 35.591 31.5H35.5928ZM32.996 30C31.5466 27.5119 29.996 21.7594 29.996 15C29.996 11.8174 28.7317 8.76515 26.4812 6.51472C24.2308 4.26428 21.1786 3 17.996 3C14.8134 3 11.7611 4.26428 9.51067 6.51472C7.26024 8.76515 5.99595 11.8174 5.99595 15C5.99595 21.7612 4.44345 27.5138 2.99595 30H32.996Z" fill="#767676"/>
</svg>
