<svg width="43" height="40" viewBox="0 0 43 40" fill="none" xmlns="http://www.w3.org/2000/svg">
<path d="M21.5018 10.7532C19.6795 10.7532 17.8982 11.2936 16.383 12.306C14.8678 13.3184 13.6869 14.7573 12.9895 16.4409C12.2922 18.1245 12.1097 19.977 12.4652 21.7643C12.8207 23.5516 13.6982 25.1933 14.9868 26.4818C16.2753 27.7704 17.917 28.6479 19.7043 29.0034C21.4916 29.3589 23.3441 29.1764 25.0277 28.4791C26.7113 27.7817 28.1502 26.6008 29.1626 25.0856C30.1751 23.5704 30.7154 21.7891 30.7154 19.9668C30.7129 17.524 29.7413 15.1819 28.014 13.4546C26.2867 11.7273 23.9446 10.7557 21.5018 10.7532ZM21.5018 26.1092C20.2869 26.1092 19.0994 25.749 18.0893 25.074C17.0791 24.3991 16.2919 23.4398 15.827 22.3174C15.362 21.195 15.2404 19.96 15.4774 18.7685C15.7144 17.577 16.2994 16.4825 17.1585 15.6235C18.0175 14.7644 19.112 14.1794 20.3035 13.9424C21.495 13.7054 22.73 13.827 23.8524 14.2919C24.9748 14.7569 25.9341 15.5441 26.609 16.5543C27.284 17.5644 27.6442 18.7519 27.6442 19.9668C27.6442 21.5959 26.9971 23.1582 25.8451 24.3101C24.6932 25.4621 23.1309 26.1092 21.5018 26.1092ZM42.6048 15.9761C42.5621 15.7599 42.4732 15.5554 42.3444 15.3766C42.2155 15.1977 42.0497 15.0487 41.8581 14.9396L36.1323 11.6765L36.1092 5.22309C36.1085 5.00084 36.0596 4.78139 35.9658 4.57989C35.872 4.3784 35.7356 4.19966 35.566 4.05603C33.489 2.29911 31.0971 0.952708 28.5176 0.0884204C28.3145 0.0196635 28.0992 -0.0057816 27.8856 0.0137239C27.672 0.0332295 27.4649 0.0972532 27.2776 0.201671L21.5018 3.43028L15.7203 0.195913C15.5328 0.0909065 15.3254 0.0263994 15.1115 0.00656088C14.8976 -0.0132776 14.6819 0.011994 14.4783 0.0807422C11.9007 0.951348 9.51161 2.30288 7.4376 4.06371C7.26824 4.20713 7.13198 4.38556 7.0382 4.5867C6.94442 4.78784 6.89536 5.00692 6.89438 5.22885L6.86559 11.688L1.13971 14.9511C0.948147 15.0602 0.782308 15.2092 0.653465 15.3881C0.524622 15.5669 0.435796 15.7714 0.393024 15.9877C-0.131008 18.621 -0.131008 21.3318 0.393024 23.9651C0.435796 24.1814 0.524622 24.3859 0.653465 24.5647C0.782308 24.7436 0.948147 24.8926 1.13971 25.0017L6.86559 28.2648L6.88862 34.7182C6.88932 34.9404 6.93825 35.1599 7.03204 35.3614C7.12583 35.5629 7.26223 35.7416 7.43184 35.8852C9.50888 37.6422 11.9007 38.9886 14.4803 39.8529C14.6834 39.9216 14.8987 39.9471 15.1123 39.9276C15.3258 39.908 15.5329 39.844 15.7203 39.7396L21.5018 36.5033L27.2833 39.7377C27.5121 39.8652 27.77 39.9313 28.032 39.9296C28.1997 39.9296 28.3663 39.9023 28.5253 39.849C31.1026 38.9796 33.4917 37.6293 35.566 35.8699C35.7354 35.7265 35.8716 35.548 35.9654 35.3469C36.0592 35.1458 36.1083 34.9267 36.1092 34.7047L36.138 28.2456L41.8639 24.9825C42.0555 24.8734 42.2213 24.7244 42.3501 24.5455C42.479 24.3667 42.5678 24.1622 42.6106 23.9459C43.1317 21.3147 43.1297 18.6066 42.6048 15.9761ZM39.7256 22.6771L34.2415 25.7963C34.0013 25.933 33.8023 26.1319 33.6657 26.3722C33.5544 26.5641 33.4373 26.7676 33.3183 26.9595C33.1659 27.2016 33.0848 27.4817 33.0841 27.7677L33.0553 33.9581C31.5813 35.1156 29.9391 36.0413 28.1855 36.7029L22.6535 33.6202C22.4238 33.4932 22.1654 33.4271 21.903 33.4283H21.8665C21.6342 33.4283 21.4001 33.4283 21.1678 33.4283C20.8931 33.4214 20.6215 33.4877 20.3808 33.6202L14.845 36.7106C13.0877 36.054 11.441 35.1329 9.96175 33.9792L9.94063 27.7984C9.93969 27.5118 9.85857 27.2312 9.70645 26.9883C9.58745 26.7964 9.47036 26.6044 9.36094 26.401C9.22528 26.157 9.02635 25.9541 8.78509 25.8136L3.29531 22.6867C3.01123 20.8897 3.01123 19.0592 3.29531 17.2622L8.76974 14.1373C9.01001 14.0006 9.20896 13.8017 9.34559 13.5614C9.45692 13.3695 9.57401 13.166 9.69302 12.974C9.84536 12.732 9.92651 12.4519 9.9272 12.1659L9.95599 5.97554C11.43 4.81797 13.0722 3.89234 14.8258 3.23065L20.3501 6.31337C20.5905 6.44664 20.8623 6.51293 21.1371 6.50532C21.3694 6.50532 21.6035 6.50532 21.8358 6.50532C22.1105 6.51218 22.3821 6.44594 22.6228 6.31337L28.1586 3.22297C29.9159 3.87958 31.5626 4.80068 33.0419 5.95442L33.063 12.1352C33.0639 12.4218 33.145 12.7024 33.2972 12.9453C33.4162 13.1372 33.5333 13.3292 33.6427 13.5326C33.7783 13.7766 33.9773 13.9795 34.2185 14.12L39.7083 17.2469C39.9962 19.0453 39.9994 20.8777 39.7179 22.6771H39.7256Z" fill="#767676"/>
</svg>
