<svg width="33" height="39" viewBox="0 0 33 39" fill="none" xmlns="http://www.w3.org/2000/svg">
<path d="M32.5612 10.9388L22.0613 0.43875C21.9218 0.299499 21.7564 0.189078 21.5743 0.113796C21.3922 0.0385137 21.197 -0.000154479 21 4.63798e-07H3C2.20435 4.63798e-07 1.44129 0.316071 0.87868 0.87868C0.31607 1.44129 0 2.20435 0 3V36C0 36.7957 0.31607 37.5587 0.87868 38.1213C1.44129 38.6839 2.20435 39 3 39H30C30.7956 39 31.5587 38.6839 32.1213 38.1213C32.6839 37.5587 33 36.7957 33 36V12C33.0002 11.803 32.9615 11.6078 32.8862 11.4257C32.8109 11.2436 32.7005 11.0782 32.5612 10.9388ZM22.5 5.12063L27.8794 10.5H22.5V5.12063ZM30 36H3V3H19.5V12C19.5 12.3978 19.658 12.7794 19.9393 13.0607C20.2206 13.342 20.6022 13.5 21 13.5H30V36ZM24 21C24 21.3978 23.842 21.7794 23.5607 22.0607C23.2794 22.342 22.8978 22.5 22.5 22.5H10.5C10.1022 22.5 9.72064 22.342 9.43934 22.0607C9.15804 21.7794 9 21.3978 9 21C9 20.6022 9.15804 20.2206 9.43934 19.9393C9.72064 19.658 10.1022 19.5 10.5 19.5H22.5C22.8978 19.5 23.2794 19.658 23.5607 19.9393C23.842 20.2206 24 20.6022 24 21ZM24 27C24 27.3978 23.842 27.7794 23.5607 28.0607C23.2794 28.342 22.8978 28.5 22.5 28.5H10.5C10.1022 28.5 9.72064 28.342 9.43934 28.0607C9.15804 27.7794 9 27.3978 9 27C9 26.6022 9.15804 26.2206 9.43934 25.9393C9.72064 25.658 10.1022 25.5 10.5 25.5H22.5C22.8978 25.5 23.2794 25.658 23.5607 25.9393C23.842 26.2206 24 26.6022 24 27Z" fill="#767676"/>
</svg>
