<svg width="46" height="31" viewBox="0 0 46 31" fill="none" xmlns="http://www.w3.org/2000/svg">
<path d="M44.4305 27.5858H42.8984V3.43626L44.7503 3.03792C44.9513 3.00022 45.1427 2.92267 45.3133 2.80983C45.4838 2.69699 45.6301 2.55115 45.7434 2.38091C45.8567 2.21066 45.9347 2.01946 45.973 1.81857C46.0112 1.61768 46.0089 1.41116 45.966 1.2112C45.9232 1.01124 45.8408 0.821872 45.7236 0.654268C45.6064 0.486664 45.4569 0.344212 45.2838 0.23531C45.1107 0.126409 44.9176 0.0532615 44.7158 0.0201799C44.514 -0.0129018 44.3076 -0.0052482 44.1088 0.0426897L1.21035 9.23521C0.840779 9.31496 0.513748 9.52854 0.292158 9.83487C0.0705688 10.1412 -0.0299286 10.5187 0.00999656 10.8946C0.0499217 11.2706 0.22745 11.6185 0.508433 11.8715C0.789417 12.1244 1.15401 12.2646 1.53209 12.2649C1.64088 12.2647 1.74935 12.2532 1.85574 12.2304L3.06417 11.9719V27.5858H1.53209C1.12575 27.5858 0.73606 27.7472 0.448738 28.0345C0.161416 28.3218 0 28.7115 0 29.1179C0 29.5242 0.161416 29.9139 0.448738 30.2012C0.73606 30.4885 1.12575 30.6499 1.53209 30.6499H44.4305C44.8368 30.6499 45.2265 30.4885 45.5139 30.2012C45.8012 29.9139 45.9626 29.5242 45.9626 29.1179C45.9626 28.7115 45.8012 28.3218 45.5139 28.0345C45.2265 27.7472 44.8368 27.5858 44.4305 27.5858ZM6.12835 11.3074L39.8342 4.09314V27.5858H35.238V16.8612C35.238 16.4548 35.0766 16.0651 34.7893 15.7778C34.5019 15.4905 34.1122 15.3291 33.7059 15.3291H12.2567C11.8504 15.3291 11.4607 15.4905 11.1733 15.7778C10.886 16.0651 10.7246 16.4548 10.7246 16.8612V27.5858H6.12835V11.3074ZM32.1738 21.4574H13.7888V18.3933H32.1738V21.4574ZM13.7888 24.5216H32.1738V27.5858H13.7888V24.5216Z" fill="#767676"/>
</svg>
