<svg width="39" height="42" viewBox="0 0 39 42" fill="none" xmlns="http://www.w3.org/2000/svg">
<path d="M37.44 9.3995L20.94 0.371372C20.4991 0.127776 20.0037 0 19.5 0C18.9963 0 18.5009 0.127776 18.06 0.371372L1.56 9.40325C1.08879 9.66107 0.695444 10.0407 0.421035 10.5024C0.146625 10.9642 0.00121923 11.4911 0 12.0282V29.9607C0.00121923 30.4979 0.146625 31.0248 0.421035 31.4866C0.695444 31.9483 1.08879 32.3279 1.56 32.5857L18.06 41.6176C18.5009 41.8612 18.9963 41.989 19.5 41.989C20.0037 41.989 20.4991 41.8612 20.94 41.6176L37.44 32.5857C37.9112 32.3279 38.3046 31.9483 38.579 31.4866C38.8534 31.0248 38.9988 30.4979 39 29.9607V12.0301C38.9998 11.492 38.8549 10.9639 38.5804 10.5011C38.3059 10.0383 37.912 9.65778 37.44 9.3995ZM19.5 2.99637L34.5638 11.2464L28.9819 14.3026L13.9163 6.05262L19.5 2.99637ZM19.5 19.4964L4.43625 11.2464L10.7925 7.76637L25.8562 16.0164L19.5 19.4964ZM3 13.8714L18 22.0801V38.1657L3 29.9626V13.8714ZM36 29.9551L21 38.1657V22.0876L27 18.8045V25.4964C27 25.8942 27.158 26.2757 27.4393 26.557C27.7206 26.8383 28.1022 26.9964 28.5 26.9964C28.8978 26.9964 29.2794 26.8383 29.5607 26.557C29.842 26.2757 30 25.8942 30 25.4964V17.162L36 13.8714V29.9532V29.9551Z" fill="#767676"/>
</svg>
