<svg width="34" height="34" viewBox="0 0 34 34" fill="none" xmlns="http://www.w3.org/2000/svg">
<path d="M17.1615 4.35327C16.9809 -0.827639 12.8828 0.399419 13.0495 5.28039C13.2995 11.143 15.55 12.8336 18.8841 16.9511C23.0795 22.1593 26.2468 25.0906 28.8169 25.7723C32.6649 26.7812 34.7904 23.5908 31.0396 21.9956C27.2887 20.4005 20.6206 20.9049 16.7308 21.4912C10.41 22.4865 5.86731 24.2589 2.35263 28.1309C-0.731387 31.4849 2.00533 33.9936 5.08935 31.0759C7.90943 28.4854 11.6742 21.3276 13.2162 17.9873C15.2722 13.5426 17.5783 9.58872 17.1476 3.87608L17.1615 4.35327Z" stroke="#C80A0A"/>
</svg>
