<svg width="38" height="36" viewBox="0 0 38 36" fill="none" xmlns="http://www.w3.org/2000/svg">
<path d="M31.0613 16.9387C31.2007 17.0781 31.3114 17.2435 31.3868 17.4256C31.4623 17.6077 31.5012 17.8029 31.5012 18C31.5012 18.1971 31.4623 18.3923 31.3868 18.5744C31.3114 18.7565 31.2007 18.9219 31.0613 19.0613L17.5613 32.5612C17.4219 32.7006 17.2564 32.8112 17.0743 32.8866C16.8923 32.962 16.6971 33.0008 16.5 33.0008C16.3029 33.0008 16.1077 32.962 15.9257 32.8866C15.7436 32.8112 15.5781 32.7006 15.4387 32.5612C15.2994 32.4219 15.1888 32.2564 15.1134 32.0743C15.038 31.8923 14.9992 31.6971 14.9992 31.5C14.9992 31.3029 15.038 31.1077 15.1134 30.9257C15.1888 30.7436 15.2994 30.5781 15.4387 30.4387L26.3794 19.5H1.5C1.10218 19.5 0.720644 19.342 0.43934 19.0607C0.158035 18.7794 0 18.3978 0 18C0 17.6022 0.158035 17.2206 0.43934 16.9393C0.720644 16.658 1.10218 16.5 1.5 16.5H26.3794L15.4387 5.56125C15.1573 5.27979 14.9992 4.89805 14.9992 4.5C14.9992 4.10195 15.1573 3.72021 15.4387 3.43875C15.7202 3.15729 16.102 2.99917 16.5 2.99917C16.898 2.99917 17.2798 3.15729 17.5613 3.43875L31.0613 16.9387ZM36 0C35.6022 0 35.2206 0.158036 34.9393 0.43934C34.658 0.720645 34.5 1.10218 34.5 1.5V34.5C34.5 34.8978 34.658 35.2794 34.9393 35.5607C35.2206 35.842 35.6022 36 36 36C36.3978 36 36.7794 35.842 37.0607 35.5607C37.342 35.2794 37.5 34.8978 37.5 34.5V1.5C37.5 1.10218 37.342 0.720645 37.0607 0.43934C36.7794 0.158036 36.3978 0 36 0Z" fill="#767676"/>
</svg>
